<svg xmlns="http://www.w3.org/2000/svg" xmlns:xlink="http://www.w3.org/1999/xlink" width="500" zoomAndPan="magnify" viewBox="0 0 375 374.999991" height="500" preserveAspectRatio="xMidYMid meet" version="1.0"><defs><g/><clipPath id="4927cbd2a7"><path d="M 236 106 L 369 106 L 369 258 L 236 258 Z M 236 106 " clip-rule="nonzero"/></clipPath><clipPath id="11a9deaa77"><path d="M 201.34375 176.429688 L 314.222656 90.691406 L 396.332031 198.796875 L 283.453125 284.53125 Z M 201.34375 176.429688 " clip-rule="nonzero"/></clipPath><clipPath id="acbcdf7344"><path d="M 201.34375 176.429688 L 314.222656 90.691406 L 396.332031 198.796875 L 283.453125 284.53125 Z M 201.34375 176.429688 " clip-rule="nonzero"/></clipPath><clipPath id="4f9ba101bd"><path d="M 201.34375 176.429688 L 314.222656 90.691406 L 396.332031 198.796875 L 283.453125 284.53125 Z M 201.34375 176.429688 " clip-rule="nonzero"/></clipPath><clipPath id="32fbc1f5ba"><rect x="0" width="76" y="0" height="177"/></clipPath><clipPath id="86ad7ce49d"><rect x="0" width="177" y="0" height="76"/></clipPath></defs><g clip-path="url(#4927cbd2a7)"><g clip-path="url(#11a9deaa77)"><g clip-path="url(#acbcdf7344)"><g clip-path="url(#4f9ba101bd)"><path fill="#000000" d="M 301.320312 144.832031 C 300.917969 145.421875 300.523438 146.007812 300.121094 146.597656 C 306.867188 137.472656 312.988281 127.921875 318.738281 118.152344 C 312.90625 127.035156 307.292969 136.058594 301.320312 144.832031 Z M 287.578125 157.023438 C 287.9375 157.1875 288.300781 157.351562 288.667969 157.511719 C 288.800781 157.3125 288.941406 157.125 289.074219 156.925781 C 287.460938 156.246094 285.851562 155.5625 284.238281 154.882812 C 281.542969 153.746094 278.867188 152.570312 276.183594 151.398438 C 279.933594 153.382812 283.695312 155.320312 287.578125 157.023438 Z M 284.753906 160.257812 C 285.246094 160.5 285.738281 160.730469 286.238281 160.964844 C 286.609375 160.433594 286.992188 159.894531 287.367188 159.359375 C 279.984375 156.421875 272.652344 153.332031 265.609375 149.628906 C 271.691406 153.683594 278.164062 157.105469 284.753906 160.257812 Z M 294.183594 157.417969 C 302.9375 146.527344 311.441406 135.453125 319.425781 123.988281 C 319.457031 122.613281 319.570312 121.253906 319.527344 119.875 C 311.617188 132.773438 303.140625 145.320312 293.902344 157.308594 C 294 157.34375 294.09375 157.378906 294.183594 157.417969 Z M 292.671875 159.296875 C 292.84375 159.085938 293.003906 158.878906 293.179688 158.675781 C 293.097656 158.644531 293.007812 158.605469 292.933594 158.566406 C 292.769531 158.773438 292.601562 158.984375 292.445312 159.199219 C 292.511719 159.230469 292.597656 159.261719 292.671875 159.296875 Z M 289.917969 162.703125 C 290.386719 162.125 290.863281 161.535156 291.332031 160.957031 C 291.261719 160.925781 291.199219 160.902344 291.128906 160.875 C 290.671875 161.457031 290.210938 162.046875 289.761719 162.636719 C 289.8125 162.65625 289.863281 162.675781 289.917969 162.703125 Z M 260.328125 150.480469 C 265.476562 158.878906 270.199219 167.535156 275.007812 176.136719 C 278.683594 171.535156 282.136719 166.78125 285.53125 161.964844 C 278.386719 158.546875 271.316406 154.882812 264.746094 150.449219 C 262.953125 149.242188 261.179688 148.164062 259.632812 146.660156 C 259.492188 146.53125 259.394531 146.34375 259.21875 146.253906 C 258.605469 145.960938 258.042969 145.667969 257.445312 145.410156 C 258.242188 147.207031 259.226562 148.863281 260.328125 150.480469 Z M 273.578125 177.957031 C 273.667969 177.84375 273.753906 177.738281 273.84375 177.625 C 273.902344 177.546875 273.957031 177.480469 274.015625 177.398438 C 272.808594 175.261719 271.59375 173.121094 270.375 170.988281 C 269.433594 169.324219 268.484375 167.675781 267.535156 166.019531 C 269.546875 170.007812 271.429688 174.058594 273.578125 177.957031 Z M 283.359375 170.800781 C 285.277344 168.429688 287.207031 166.054688 289.128906 163.683594 C 289.078125 163.664062 289.03125 163.636719 288.988281 163.625 C 287.183594 166.070312 285.050781 168.273438 283.359375 170.800781 Z M 268.5 187.710938 C 262.773438 194.046875 257.015625 200.351562 251.183594 206.59375 C 256.203125 202.535156 260.894531 198.089844 265.25 193.328125 C 268.042969 189.972656 270.488281 186.363281 273.007812 182.804688 C 273 182.777344 272.976562 182.75 272.964844 182.71875 C 271.460938 184.457031 270.03125 186.039062 268.5 187.710938 Z M 247.542969 217.46875 C 246.289062 217.710938 245.015625 217.871094 243.75 218.007812 C 242.890625 218.089844 241.953125 218.117188 241.207031 217.628906 C 240.796875 218.210938 240.355469 218.78125 240.238281 219.464844 C 240.628906 219.6875 241.074219 219.480469 241.464844 219.445312 C 243.542969 218.964844 245.527344 218.15625 247.542969 217.46875 Z M 296.5625 158.402344 C 301.972656 160.652344 307.355469 162.980469 312.742188 165.285156 C 313.6875 165.691406 314.648438 166.097656 315.601562 166.5 C 316.976562 154.125 318.28125 141.71875 319.128906 129.304688 C 311.449219 138.929688 303.746094 148.542969 296.164062 158.234375 C 296.289062 158.292969 296.429688 158.351562 296.5625 158.402344 Z M 295.40625 160.503906 C 302.019531 163.363281 308.648438 166.179688 315.347656 168.824219 C 315.363281 168.644531 315.382812 168.464844 315.40625 168.28125 C 313.660156 167.523438 311.914062 166.761719 310.171875 165.992188 C 305.179688 163.804688 300.179688 161.636719 295.164062 159.5 C 294.992188 159.726562 294.816406 159.945312 294.652344 160.164062 C 294.898438 160.285156 295.15625 160.394531 295.40625 160.503906 Z M 297.183594 165.96875 C 303.058594 168.496094 308.929688 171.03125 314.867188 173.390625 C 314.886719 173.210938 314.910156 173.039062 314.917969 172.863281 C 314.964844 172.425781 315.011719 171.976562 315.058594 171.539062 C 307.910156 168.113281 300.769531 164.667969 293.375 161.796875 C 292.902344 162.402344 292.425781 163.015625 291.957031 163.628906 C 293.699219 164.414062 295.4375 165.210938 297.183594 165.96875 Z M 261.226562 212.449219 C 265.011719 211.054688 268.804688 209.65625 272.601562 208.273438 C 265.761719 209.941406 258.949219 211.703125 252.15625 213.539062 C 248.816406 214.570312 245.246094 215.09375 242.203125 216.800781 C 245.953125 216.863281 249.570312 215.65625 253.171875 214.828125 C 255.890625 214.148438 258.621094 213.496094 261.226562 212.449219 Z M 284.378906 204.136719 C 280.933594 198.0625 277.679688 191.878906 274.472656 185.671875 C 271.058594 189.746094 267.339844 193.574219 264.394531 198.015625 C 262.269531 200.835938 260.414062 203.878906 258.007812 206.464844 C 257.679688 206.8125 257.097656 206.839844 256.726562 206.550781 C 255.941406 205.9375 256.59375 205.042969 256.949219 204.390625 C 254.675781 206.308594 252.480469 208.320312 250.078125 210.074219 C 248.449219 211.179688 246.894531 212.597656 244.929688 213.046875 C 244.726562 213.273438 244.527344 213.507812 244.351562 213.714844 C 243.972656 214.164062 243.589844 214.625 243.207031 215.066406 C 251.90625 212.355469 260.792969 210.320312 269.628906 208.082031 C 274.578125 206.832031 279.613281 205.96875 284.378906 204.136719 Z M 288.3125 202.832031 C 285.695312 198.128906 283.074219 193.429688 280.429688 188.738281 C 279.28125 186.695312 278.132812 184.65625 276.976562 182.621094 C 276.847656 182.777344 276.71875 182.933594 276.597656 183.097656 C 277.335938 184.351562 278.066406 185.605469 278.800781 186.859375 C 281.945312 192.191406 285.078125 197.53125 288.21875 202.863281 C 288.242188 202.847656 288.277344 202.84375 288.3125 202.832031 Z M 283.871094 206.488281 C 284.40625 206.351562 284.941406 206.21875 285.472656 206.074219 C 285.402344 205.953125 285.332031 205.828125 285.261719 205.703125 C 285.222656 205.636719 285.191406 205.578125 285.152344 205.515625 C 280.050781 206.296875 275.304688 208.316406 270.480469 210.074219 C 274.929688 208.839844 279.394531 207.625 283.871094 206.488281 Z M 288.867188 203.828125 C 288.847656 203.785156 288.820312 203.734375 288.792969 203.695312 C 288.765625 203.707031 288.742188 203.710938 288.714844 203.71875 C 288.734375 203.761719 288.765625 203.800781 288.785156 203.84375 C 288.820312 203.839844 288.839844 203.835938 288.867188 203.828125 Z M 289.542969 205.042969 C 289.472656 204.917969 289.402344 204.796875 289.332031 204.671875 C 289.3125 204.675781 289.296875 204.671875 289.28125 204.683594 C 289.355469 204.808594 289.429688 204.941406 289.507812 205.058594 C 289.515625 205.054688 289.523438 205.046875 289.542969 205.042969 Z M 281.222656 210.960938 C 283.246094 210.40625 285.261719 209.859375 287.285156 209.304688 C 287.125 209.011719 286.960938 208.722656 286.792969 208.4375 C 285.824219 208.839844 284.855469 209.230469 283.875 209.621094 C 282.253906 210.269531 280.628906 210.914062 279.007812 211.566406 C 279.753906 211.367188 280.488281 211.164062 281.222656 210.960938 Z M 322.492188 171.667969 C 325.699219 172.90625 328.917969 174.109375 332.132812 175.324219 C 330.628906 174.714844 329.125 174.101562 327.628906 173.488281 C 325.792969 172.730469 323.964844 171.960938 322.136719 171.183594 C 322.128906 171.296875 322.121094 171.410156 322.109375 171.523438 C 322.238281 171.566406 322.371094 171.621094 322.492188 171.667969 Z M 295.039062 203.570312 C 294.109375 203.742188 293.175781 203.917969 292.234375 204.089844 C 292.253906 204.085938 292.273438 204.082031 292.296875 204.078125 C 291.761719 204.1875 291.230469 204.292969 290.707031 204.398438 C 290.765625 204.507812 290.820312 204.609375 290.886719 204.710938 C 292.082031 204.40625 293.292969 204.101562 294.492188 203.796875 C 294.667969 203.71875 294.855469 203.636719 295.039062 203.570312 Z M 290.546875 202.101562 C 297.878906 199.859375 305.234375 197.671875 312.699219 195.898438 C 313.269531 188.84375 314.015625 181.800781 314.730469 174.761719 C 306.820312 171.535156 298.96875 168.167969 291.199219 164.621094 C 286.800781 170.234375 282.472656 175.902344 277.945312 181.421875 C 281.175781 187.246094 284.417969 193.070312 287.648438 198.894531 C 288.296875 200.058594 288.945312 201.238281 289.59375 202.402344 C 289.914062 202.296875 290.230469 202.199219 290.546875 202.101562 Z M 303.492188 200.359375 C 305.328125 199.742188 307.167969 199.117188 309.003906 198.503906 C 310.179688 198.105469 311.371094 197.757812 312.554688 197.390625 C 312.566406 197.277344 312.574219 197.164062 312.582031 197.050781 C 304.996094 198.824219 297.503906 200.949219 290.066406 203.261719 C 290.113281 203.355469 290.171875 203.441406 290.21875 203.535156 C 294.714844 202.582031 299.261719 202.160156 303.492188 200.359375 Z M 312.417969 199.296875 C 312.421875 199.222656 312.425781 199.136719 312.4375 199.054688 C 311.535156 199.328125 310.644531 199.601562 309.734375 199.867188 C 309.726562 199.871094 309.714844 199.871094 309.699219 199.882812 C 309.777344 199.859375 309.78125 199.851562 309.359375 199.996094 C 309.671875 199.9375 309.988281 199.886719 310.296875 199.828125 C 311 199.652344 311.714844 199.472656 312.417969 199.296875 Z M 337.675781 181.84375 C 332.386719 179.511719 327.113281 177.148438 321.878906 174.730469 C 321.839844 175.195312 321.808594 175.648438 321.769531 176.113281 C 322.320312 176.324219 322.871094 176.523438 323.421875 176.730469 C 328.082031 178.496094 332.777344 180.152344 337.480469 181.789062 C 337.460938 181.777344 337.441406 181.769531 337.460938 181.777344 C 337.523438 181.800781 337.597656 181.816406 337.675781 181.84375 Z M 299.34375 206.160156 C 302.40625 205.398438 305.46875 204.609375 308.542969 203.882812 C 309.765625 203.59375 310.980469 203.3125 312.203125 203.023438 C 312.242188 202.34375 312.28125 201.648438 312.320312 200.96875 C 305.496094 202.8125 298.429688 203.941406 291.808594 206.390625 C 292.082031 206.894531 292.363281 207.386719 292.644531 207.898438 C 294.875 207.304688 297.105469 206.710938 299.34375 206.160156 Z M 320.496094 197.316406 C 326.882812 195.769531 333.273438 194.230469 339.660156 192.683594 C 340.535156 192.46875 341.417969 192.257812 342.292969 192.042969 C 334.851562 193.292969 327.457031 194.8125 320.199219 196.84375 C 320.183594 196.984375 320.179688 197.117188 320.164062 197.25 C 320.15625 197.304688 320.15625 197.351562 320.148438 197.402344 C 320.265625 197.371094 320.378906 197.347656 320.496094 197.316406 Z M 336.242188 197.410156 C 337.167969 197.179688 338.105469 196.953125 339.03125 196.722656 C 332.6875 197.515625 326.335938 198.316406 320.015625 199.28125 C 319.96875 199.933594 319.925781 200.59375 319.875 201.242188 C 325.34375 199.992188 330.800781 198.734375 336.242188 197.410156 Z M 349.710938 188.589844 C 350.234375 188.488281 350.746094 188.382812 351.261719 188.285156 C 341.40625 184.65625 331.429688 181.363281 321.65625 177.515625 C 321.628906 177.917969 321.59375 178.320312 321.566406 178.722656 C 321.167969 183.84375 320.789062 188.960938 320.398438 194.074219 C 326.355469 192.773438 332.492188 191.519531 338.445312 190.492188 C 342.199219 189.851562 345.992188 189.402344 349.710938 188.589844 Z M 356.726562 187.332031 C 353.539062 185.621094 350.027344 184.605469 346.664062 183.289062 C 339.859375 180.785156 333.027344 178.339844 326.285156 175.667969 C 331.507812 177.953125 336.738281 180.21875 342 182.402344 C 346.84375 184.195312 351.570312 186.714844 356.726562 187.332031 Z M 312.386719 242.488281 C 312.242188 239.082031 312.417969 235.65625 312.375 232.253906 C 311.796875 222.785156 311.605469 213.328125 312.164062 203.859375 C 305.761719 205.335938 299.414062 206.980469 293.074219 208.648438 C 297.1875 216.039062 301.285156 223.441406 305.402344 230.824219 C 307.574219 234.800781 309.800781 238.757812 312.386719 242.488281 Z M 318.796875 257.542969 C 317.40625 258.199219 316.699219 256.460938 316.136719 255.503906 C 313.789062 251.914062 311.695312 248.160156 309.332031 244.582031 C 301.839844 233.269531 294.539062 221.824219 287.730469 210.089844 C 278.730469 212.582031 269.742188 215.121094 260.820312 217.886719 C 256.628906 219.148438 252.394531 220.261719 248.132812 221.304688 C 244.648438 222.128906 241.152344 223.175781 237.535156 223.175781 C 236.855469 223.179688 236.628906 222.132812 237.296875 221.910156 C 238.4375 221.496094 239.648438 221.441406 240.832031 221.226562 C 256.027344 218.777344 270.632812 213.757812 284.765625 207.808594 C 275.179688 210.210938 265.683594 212.9375 256.128906 215.46875 C 251.117188 217.226562 246.203125 219.574219 241.050781 220.800781 C 235.464844 221.019531 242.128906 213.898438 243.386719 212.195312 C 243.355469 210.429688 245.292969 209.183594 246.382812 207.988281 C 247.699219 206.691406 249.03125 205.410156 250.324219 204.082031 C 257.269531 195.980469 264.789062 188.363281 271.671875 180.210938 C 268.910156 174.671875 266.128906 169.148438 263.003906 163.800781 C 262.027344 162.066406 261.097656 160.3125 260.167969 158.542969 C 259.683594 157.597656 259.066406 156.597656 259.175781 155.496094 C 257.847656 152.859375 256.546875 150.199219 255.167969 147.589844 C 254.574219 145.257812 253.394531 143.109375 252.660156 140.789062 C 252.46875 140.039062 251.742188 138.148438 252.625 137.726562 C 252.902344 137.609375 253.226562 137.710938 253.402344 137.941406 C 254.773438 139.636719 255.535156 141.710938 256.546875 143.617188 C 257.527344 143.464844 258.433594 143.925781 259.316406 144.296875 C 259.90625 144.121094 260.488281 144.425781 261.019531 144.660156 C 261.894531 145.046875 262.789062 145.398438 263.652344 145.820312 C 262.867188 145.410156 262.089844 145.007812 261.304688 144.609375 C 260.777344 144.382812 259.820312 144.183594 259.761719 143.484375 C 259.722656 143.074219 260.125 142.746094 260.511719 142.914062 C 270.296875 147.226562 280.015625 151.6875 289.945312 155.675781 C 297.671875 144.667969 305.289062 133.589844 313.019531 122.582031 C 314.070312 120.808594 315.117188 119.03125 316.210938 117.28125 C 317.082031 116.050781 317.742188 114.398438 319.199219 113.78125 C 320.9375 111.417969 322.472656 108.867188 324.625 106.851562 C 325.246094 106.25 326.355469 106.671875 326.34375 107.570312 C 326.394531 109.023438 325.460938 110.21875 324.742188 111.390625 C 323.792969 112.953125 322.828125 114.515625 321.871094 116.070312 C 322.089844 117.574219 322.089844 119.113281 322.066406 120.621094 C 322.066406 120.621094 322.082031 120.625 322.082031 120.625 C 322.171875 120.648438 322.253906 120.679688 322.34375 120.71875 C 322.8125 119.441406 324.761719 119.769531 324.757812 121.160156 C 324.792969 124.695312 324.578125 128.234375 324.441406 131.773438 C 324.078125 144.3125 323.125 156.804688 322.253906 169.316406 C 336.027344 175.113281 350.136719 180.035156 363.953125 185.644531 C 364.542969 185.90625 365.066406 186.394531 365.097656 187.074219 C 365.210938 187.765625 364.492188 188.359375 363.824219 188.167969 C 362.191406 187.742188 360.621094 187.167969 359.035156 186.632812 C 358.824219 186.558594 358.605469 186.488281 358.582031 186.644531 C 358.980469 187.265625 359.328125 188.386719 358.351562 188.644531 C 360.597656 189.4375 362.808594 190.3125 365.035156 191.15625 C 366.152344 191.585938 367.285156 191.992188 368.386719 192.460938 C 368.835938 192.648438 369.089844 193.15625 368.964844 193.628906 C 368.820312 194.167969 368.277344 194.449219 367.75 194.328125 C 364.847656 193.371094 362.023438 192.1875 359.136719 191.171875 C 357.261719 190.550781 355.394531 189.386719 353.363281 190.039062 C 353.515625 190.519531 353.214844 191.089844 352.75 191.253906 C 350.070312 192.328125 347.222656 192.859375 344.414062 193.5 C 339.394531 194.625 334.382812 195.753906 329.375 196.90625 C 336.53125 195.875 343.738281 195.128906 350.855469 193.816406 C 352.78125 193.347656 354.699219 192.839844 356.632812 192.386719 C 357.363281 192.257812 358.09375 191.835938 358.835938 192.066406 C 359.425781 192.265625 359.421875 193.054688 358.832031 193.242188 C 355.550781 194.320312 352.121094 194.75 348.75 195.414062 C 339.113281 197.691406 329.472656 199.925781 319.816406 202.097656 C 319.527344 205.699219 319.289062 209.304688 319.015625 212.910156 C 319.011719 212.875 319.023438 212.855469 319.027344 212.816406 C 318.140625 225.304688 318.007812 237.839844 317.617188 250.355469 C 318.441406 251.550781 319.296875 252.726562 320.238281 253.808594 C 320.527344 254.125 320.820312 254.433594 321.128906 254.71875 C 321.226562 254.8125 321.375 254.886719 321.46875 254.960938 C 319.90625 253.945312 318.777344 252.351562 317.5625 250.953125 C 317.542969 251.144531 317.523438 251.324219 317.503906 251.515625 C 317.488281 251.730469 317.410156 251.933594 317.285156 252.113281 C 318.023438 253.492188 318.773438 254.863281 319.328125 256.324219 C 319.527344 256.824219 319.25 257.34375 318.796875 257.542969 Z M 318.796875 257.542969 " fill-opacity="1" fill-rule="nonzero"/></g></g></g></g><g transform="matrix(1, 0, 0, 1, 0, 85)"><g clip-path="url(#32fbc1f5ba)"><g fill="#000000" fill-opacity="1"><g transform="translate(0.83343, 134.991987)"><g><path d="M 3.65625 -16.359375 L 9.34375 -41.625 C 12.070312 -40.257812 14.457031 -39.113281 16.5 -38.1875 C 18.550781 -37.269531 20.398438 -36.519531 22.046875 -35.9375 C 23.703125 -35.351562 25.257812 -34.9375 26.71875 -34.6875 C 28.1875 -34.445312 29.648438 -34.328125 31.109375 -34.328125 C 31.984375 -34.328125 33.101562 -34.570312 34.46875 -35.0625 C 30.082031 -35.832031 26.039062 -37.09375 22.34375 -38.84375 C 18.644531 -40.601562 15.773438 -42.550781 13.734375 -44.6875 C 12.171875 -46.25 10.679688 -48.097656 9.265625 -50.234375 C 7.859375 -52.378906 6.328125 -55.109375 4.671875 -58.421875 C 2.234375 -63.484375 1.015625 -68.253906 1.015625 -72.734375 C 1.015625 -76.535156 1.722656 -80.019531 3.140625 -83.1875 C 4.554688 -86.351562 6.53125 -89.054688 9.0625 -91.296875 C 11.59375 -93.535156 14.65625 -95.285156 18.25 -96.546875 C 21.851562 -97.816406 25.800781 -98.453125 30.09375 -98.453125 C 31.257812 -98.453125 32.453125 -98.398438 33.671875 -98.296875 C 34.890625 -98.203125 36.472656 -98.054688 38.421875 -97.859375 L 39.140625 -101.375 L 61.9375 -98.15625 L 67.921875 -86.609375 L 61.9375 -60.171875 C 57.644531 -62.117188 54.132812 -63.484375 51.40625 -64.265625 C 48.6875 -65.046875 45.914062 -65.4375 43.09375 -65.4375 L 41.78125 -65.4375 C 44.789062 -64.363281 47.34375 -63.363281 49.4375 -62.4375 C 51.53125 -61.507812 53.332031 -60.5625 54.84375 -59.59375 C 56.351562 -58.625 57.691406 -57.503906 58.859375 -56.234375 C 60.023438 -54.960938 61.242188 -53.453125 62.515625 -51.703125 C 65.242188 -47.910156 67.410156 -43.773438 69.015625 -39.296875 C 70.617188 -34.816406 71.421875 -30.773438 71.421875 -27.171875 C 71.421875 -22.984375 70.59375 -19.160156 68.9375 -15.703125 C 67.28125 -12.242188 64.941406 -9.269531 61.921875 -6.78125 C 58.910156 -4.300781 55.359375 -2.351562 51.265625 -0.9375 C 47.179688 0.46875 42.65625 1.171875 37.6875 1.171875 C 32.8125 1.171875 28.160156 0.632812 23.734375 -0.4375 C 19.304688 -1.507812 14.507812 -3.164062 9.34375 -5.40625 Z M 6.859375 -18.40625 C 10.367188 -16.550781 14.457031 -15.113281 19.125 -14.09375 C 23.800781 -13.070312 28.476562 -12.5625 33.15625 -12.5625 C 37.4375 -12.5625 41.378906 -13.21875 44.984375 -14.53125 C 48.585938 -15.84375 51.703125 -17.644531 54.328125 -19.9375 C 56.960938 -22.226562 59.007812 -24.953125 60.46875 -28.109375 C 61.925781 -31.273438 62.65625 -34.757812 62.65625 -38.5625 C 62.65625 -47.613281 58.757812 -54.332031 50.96875 -58.71875 C 50.195312 -59.207031 49.441406 -59.617188 48.703125 -59.953125 C 47.972656 -60.296875 47.117188 -60.660156 46.140625 -61.046875 C 45.171875 -61.441406 43.976562 -61.859375 42.5625 -62.296875 C 41.15625 -62.734375 39.382812 -63.289062 37.25 -63.96875 C 35.007812 -64.65625 33.15625 -65.289062 31.6875 -65.875 C 30.226562 -66.457031 29.109375 -67.039062 28.328125 -67.625 C 27.554688 -68.207031 27.023438 -68.863281 26.734375 -69.59375 C 26.441406 -70.320312 26.296875 -71.175781 26.296875 -72.15625 C 26.296875 -74.394531 27.269531 -76.171875 29.21875 -77.484375 C 31.164062 -78.796875 33.789062 -79.453125 37.09375 -79.453125 C 40.988281 -79.453125 46.585938 -78.09375 53.890625 -75.375 L 58.71875 -96.109375 L 41.046875 -98.59375 L 40.171875 -94.9375 C 38.023438 -95.332031 36.269531 -95.601562 34.90625 -95.75 C 33.539062 -95.894531 31.984375 -95.96875 30.234375 -95.96875 C 26.242188 -95.96875 22.613281 -95.40625 19.34375 -94.28125 C 16.082031 -93.164062 13.304688 -91.582031 11.015625 -89.53125 C 8.734375 -87.488281 6.957031 -85.03125 5.6875 -82.15625 C 4.425781 -79.28125 3.796875 -76.09375 3.796875 -72.59375 C 3.796875 -66.164062 5.960938 -61.003906 10.296875 -57.109375 C 14.628906 -53.210938 21.710938 -50.046875 31.546875 -47.609375 C 34.859375 -46.734375 37.242188 -45.660156 38.703125 -44.390625 C 40.160156 -43.128906 40.890625 -41.429688 40.890625 -39.296875 C 40.890625 -37.054688 39.988281 -35.253906 38.1875 -33.890625 C 36.394531 -32.523438 33.988281 -31.84375 30.96875 -31.84375 C 28.144531 -31.84375 25.171875 -32.300781 22.046875 -33.21875 C 18.929688 -34.144531 15.28125 -35.632812 11.09375 -37.6875 Z M 6.859375 -18.40625 "/></g></g></g></g></g><g transform="matrix(1, 0, 0, 1, 77, 143)"><g clip-path="url(#86ad7ce49d)"><g fill="#000000" fill-opacity="1"><g transform="translate(0.943642, 60.625697)"><g><path d="M 21.234375 -21.484375 L 17.25 -21.734375 L 17.25 -13.25 C 17.25 -12.144531 17.421875 -11.347656 17.765625 -10.859375 C 18.117188 -10.367188 18.773438 -10.125 19.734375 -10.125 C 20.691406 -10.125 21.425781 -10.09375 21.9375 -10.03125 C 22.445312 -9.96875 22.988281 -9.773438 23.5625 -9.453125 C 24.507812 -8.921875 24.984375 -7.550781 24.984375 -5.34375 C 24.984375 -2.757812 24.410156 -1.179688 23.265625 -0.609375 C 22.648438 -0.328125 22.101562 -0.15625 21.625 -0.09375 C 21.15625 -0.03125 20.472656 0 19.578125 0 C 15.328125 0 12.09375 -0.957031 9.875 -2.875 C 7.664062 -4.800781 6.5625 -8.054688 6.5625 -12.640625 L 6.5625 -21.734375 C 5.789062 -21.609375 4.953125 -21.546875 4.046875 -21.546875 C 3.148438 -21.546875 2.40625 -21.890625 1.8125 -22.578125 C 1.21875 -23.273438 0.921875 -24.460938 0.921875 -26.140625 C 0.921875 -27.816406 1.019531 -29.035156 1.21875 -29.796875 C 1.425781 -30.554688 1.71875 -31.097656 2.09375 -31.421875 C 2.738281 -31.953125 3.554688 -32.21875 4.546875 -32.21875 L 6.5625 -31.96875 L 6.5625 -38.296875 C 6.5625 -39.234375 6.59375 -39.925781 6.65625 -40.375 C 6.71875 -40.832031 6.914062 -41.328125 7.25 -41.859375 C 7.78125 -42.878906 9.351562 -43.390625 11.96875 -43.390625 C 14.75 -43.390625 16.40625 -42.632812 16.9375 -41.125 C 17.144531 -40.46875 17.25 -39.421875 17.25 -37.984375 L 17.25 -31.96875 C 19.050781 -32.132812 20.410156 -32.21875 21.328125 -32.21875 C 22.242188 -32.21875 22.9375 -32.1875 23.40625 -32.125 C 23.882812 -32.0625 24.429688 -31.867188 25.046875 -31.546875 C 26.109375 -31.015625 26.640625 -29.441406 26.640625 -26.828125 C 26.640625 -24.242188 26.085938 -22.664062 24.984375 -22.09375 C 24.367188 -21.8125 23.820312 -21.640625 23.34375 -21.578125 C 22.875 -21.515625 22.171875 -21.484375 21.234375 -21.484375 Z M 21.234375 -21.484375 "/></g></g></g><g fill="#000000" fill-opacity="1"><g transform="translate(38.866612, 60.625697)"><g><path d="M 33.640625 -20.03125 C 33.640625 -17.519531 33.015625 -15.660156 31.765625 -14.453125 C 30.515625 -13.242188 29.132812 -12.640625 27.625 -12.640625 L 13.078125 -12.640625 C 13.078125 -11.492188 13.75 -10.53125 15.09375 -9.75 C 16.445312 -8.976562 17.800781 -8.59375 19.15625 -8.59375 C 21.519531 -8.59375 23.378906 -8.835938 24.734375 -9.328125 L 25.40625 -9.578125 C 26.382812 -10.023438 27.203125 -10.25 27.859375 -10.25 C 29.171875 -10.25 30.296875 -9.328125 31.234375 -7.484375 C 31.765625 -6.378906 32.03125 -5.441406 32.03125 -4.671875 C 32.03125 -1.023438 27.675781 0.796875 18.96875 0.796875 C 15.9375 0.796875 13.242188 0.273438 10.890625 -0.765625 C 8.535156 -1.804688 6.707031 -3.1875 5.40625 -4.90625 C 2.820312 -8.21875 1.53125 -11.921875 1.53125 -16.015625 C 1.53125 -21.171875 3.195312 -25.289062 6.53125 -28.375 C 9.863281 -31.46875 14.03125 -33.015625 19.03125 -33.015625 C 24.71875 -33.015625 28.890625 -31.007812 31.546875 -27 C 32.941406 -24.875 33.640625 -22.550781 33.640625 -20.03125 Z M 20.6875 -18.234375 C 22.238281 -18.234375 23.015625 -18.882812 23.015625 -20.1875 C 23.015625 -21.132812 22.65625 -21.894531 21.9375 -22.46875 C 21.226562 -23.039062 20.207031 -23.328125 18.875 -23.328125 C 17.539062 -23.328125 16.21875 -22.78125 14.90625 -21.6875 C 13.601562 -20.601562 12.953125 -19.453125 12.953125 -18.234375 Z M 20.6875 -18.234375 "/></g></g></g><g fill="#000000" fill-opacity="1"><g transform="translate(85.625403, 60.625697)"><g><path d="M 2.453125 -42.171875 C 2.453125 -43.109375 2.484375 -43.8125 2.546875 -44.28125 C 2.609375 -44.75 2.78125 -45.289062 3.0625 -45.90625 C 3.632812 -47.007812 5.234375 -47.5625 7.859375 -47.5625 C 10.347656 -47.5625 11.898438 -47.007812 12.515625 -45.90625 C 12.847656 -45.289062 13.046875 -44.738281 13.109375 -44.25 C 13.171875 -43.757812 13.203125 -43.046875 13.203125 -42.109375 L 13.203125 -13.6875 C 13.203125 -12.21875 13.320312 -11.285156 13.5625 -10.890625 C 13.8125 -10.503906 14.351562 -10.3125 15.1875 -10.3125 C 16.03125 -10.3125 16.59375 -10.28125 16.875 -10.21875 C 17.164062 -10.15625 17.515625 -9.984375 17.921875 -9.703125 C 18.742188 -9.171875 19.15625 -7.71875 19.15625 -5.34375 C 19.15625 -2.757812 18.742188 -1.179688 17.921875 -0.609375 C 16.859375 0.117188 14.320312 0.238281 10.3125 -0.25 C 7.15625 -0.65625 5.109375 -1.695312 4.171875 -3.375 C 3.023438 -5.382812 2.453125 -8.578125 2.453125 -12.953125 Z M 2.453125 -42.171875 "/></g></g></g><g fill="#000000" fill-opacity="1"><g transform="translate(117.290099, 60.625697)"><g><path d="M 2.453125 -42.171875 C 2.453125 -43.109375 2.484375 -43.8125 2.546875 -44.28125 C 2.609375 -44.75 2.78125 -45.289062 3.0625 -45.90625 C 3.632812 -47.007812 5.234375 -47.5625 7.859375 -47.5625 C 10.347656 -47.5625 11.898438 -47.007812 12.515625 -45.90625 C 12.847656 -45.289062 13.046875 -44.738281 13.109375 -44.25 C 13.171875 -43.757812 13.203125 -43.046875 13.203125 -42.109375 L 13.203125 -13.6875 C 13.203125 -12.21875 13.320312 -11.285156 13.5625 -10.890625 C 13.8125 -10.503906 14.351562 -10.3125 15.1875 -10.3125 C 16.03125 -10.3125 16.59375 -10.28125 16.875 -10.21875 C 17.164062 -10.15625 17.515625 -9.984375 17.921875 -9.703125 C 18.742188 -9.171875 19.15625 -7.71875 19.15625 -5.34375 C 19.15625 -2.757812 18.742188 -1.179688 17.921875 -0.609375 C 16.859375 0.117188 14.320312 0.238281 10.3125 -0.25 C 7.15625 -0.65625 5.109375 -1.695312 4.171875 -3.375 C 3.023438 -5.382812 2.453125 -8.578125 2.453125 -12.953125 Z M 2.453125 -42.171875 "/></g></g></g><g fill="#000000" fill-opacity="1"><g transform="translate(148.954795, 60.625697)"><g><path d="M 2.453125 -26.9375 C 2.453125 -27.882812 2.484375 -28.59375 2.546875 -29.0625 C 2.609375 -29.53125 2.78125 -30.070312 3.0625 -30.6875 C 3.632812 -31.75 5.234375 -32.28125 7.859375 -32.28125 C 9.816406 -32.28125 11.207031 -31.929688 12.03125 -31.234375 C 12.726562 -30.660156 13.097656 -29.78125 13.140625 -28.59375 C 13.179688 -28.1875 13.203125 -27.597656 13.203125 -26.828125 L 13.203125 -5.34375 C 13.203125 -4.394531 13.171875 -3.6875 13.109375 -3.21875 C 13.046875 -2.75 12.847656 -2.207031 12.515625 -1.59375 C 11.984375 -0.53125 10.410156 0 7.796875 0 C 5.210938 0 3.632812 -0.550781 3.0625 -1.65625 C 2.78125 -2.269531 2.609375 -2.800781 2.546875 -3.25 C 2.484375 -3.695312 2.453125 -4.414062 2.453125 -5.40625 Z M 12.546875 -38.328125 C 12.242188 -37.734375 11.703125 -37.3125 10.921875 -37.0625 C 10.148438 -36.820312 9.117188 -36.703125 7.828125 -36.703125 C 6.535156 -36.703125 5.5 -36.820312 4.71875 -37.0625 C 3.945312 -37.3125 3.40625 -37.742188 3.09375 -38.359375 C 2.789062 -38.972656 2.609375 -39.515625 2.546875 -39.984375 C 2.484375 -40.453125 2.453125 -41.15625 2.453125 -42.09375 C 2.453125 -43.039062 2.484375 -43.75 2.546875 -44.21875 C 2.609375 -44.6875 2.78125 -45.207031 3.0625 -45.78125 C 3.632812 -46.882812 5.234375 -47.4375 7.859375 -47.4375 C 10.429688 -47.4375 11.984375 -46.882812 12.515625 -45.78125 C 12.847656 -45.164062 13.046875 -44.625 13.109375 -44.15625 C 13.171875 -43.6875 13.203125 -42.976562 13.203125 -42.03125 C 13.203125 -41.09375 13.171875 -40.390625 13.109375 -39.921875 C 13.046875 -39.453125 12.859375 -38.921875 12.546875 -38.328125 Z M 12.546875 -38.328125 "/></g></g></g></g></g></svg>